<svg xmlns="http://www.w3.org/2000/svg" version="1.1" xmlns:xlink="http://www.w3.org/1999/xlink" xmlns:svgjs="http://svgjs.dev/svgjs" width="1500" height="280" viewBox="0 0 1500 280"><g transform="matrix(1,0,0,1,-0.9090909090909918,-0.8307578389770072)"><svg viewBox="0 0 396 74" data-background-color="#ffffff" preserveAspectRatio="xMidYMid meet" height="280" width="1500" xmlns="http://www.w3.org/2000/svg" xmlns:xlink="http://www.w3.org/1999/xlink"><g id="tight-bounds" transform="matrix(1,0,0,1,0.2400000000000091,0.2195574288724913)"><svg viewBox="0 0 395.52 73.560885142255" height="73.560885142255" width="395.52"><g><svg viewBox="0 0 395.52 73.560885142255" height="73.560885142255" width="395.52"><g><svg viewBox="0 0 395.52 73.560885142255" height="73.560885142255" width="395.52"><g id="textblocktransform"><svg viewBox="0 0 395.52 73.560885142255" height="73.560885142255" width="395.52" id="textblock"><g><svg viewBox="0 0 395.52 73.560885142255" height="73.560885142255" width="395.52"><g transform="matrix(1,0,0,1,0,0)"><svg width="395.52" viewBox="2.34 -34.08 185.34 34.47" height="73.560885142255" data-palette-color="#d82c2c"><path d="M9.52 0.39L9.52 0.39Q7.67 0.39 5.79-0.05 3.91-0.49 2.59-1.17L2.59-1.17 2.34-6.59 4.98-6.59 5.96-3.08Q7.67-1.9 9.86-1.9L9.86-1.9Q11.47-1.9 12.43-2.66 13.38-3.42 13.38-4.64L13.38-4.64Q13.38-5.86 12.48-6.76 11.57-7.67 8.89-8.74L8.89-8.74Q5.37-10.16 3.96-11.62 2.54-13.09 2.54-15.33L2.54-15.33Q2.54-17.14 3.66-18.53 4.79-19.92 6.74-20.73 8.69-21.53 11.28-21.53L11.28-21.53Q12.7-21.53 14.16-21.29 15.63-21.04 16.65-20.61L16.65-20.61 17.19-15.33 14.65-15.33 13.48-18.65Q12.99-18.95 12.3-19.12 11.62-19.29 10.89-19.29L10.89-19.29Q9.23-19.29 8.23-18.53 7.23-17.77 7.23-16.6L7.23-16.6Q7.23-15.28 8.35-14.4 9.47-13.53 12.3-12.26L12.3-12.26Q15.53-10.84 16.85-9.4 18.16-7.96 18.16-5.86L18.16-5.86Q18.16-3.13 15.75-1.37 13.33 0.39 9.52 0.39ZM29.15 0.39L29.15 0.39Q27.1 0.39 25.53-0.46 23.97-1.32 23.14-2.59 22.31-3.86 22.31-5.13L22.31-5.13Q22.31-6.79 23.36-7.89 24.41-8.98 26.85-9.77L26.85-9.77 34.37-12.21 34.37-14.45Q34.37-15.58 33.66-16.55 32.96-17.53 31.78-18.12 30.61-18.7 29.15-18.7L29.15-18.7Q28.12-18.7 27.71-18.24 27.29-17.77 27.19-16.41L27.19-16.41 27.05-14.06Q25.1-13.62 23.75-14.18 22.41-14.75 22.41-16.06L22.41-16.06Q22.41-16.89 23.22-17.77 24.02-18.65 25.27-19.46 26.51-20.26 27.93-20.8 29.34-21.34 30.61-21.53L30.61-21.53Q34.42-21.53 36.74-19.6 39.06-17.68 39.11-14.5L39.11-14.5 38.96-6.79Q38.96-5.71 39.04-4.86 39.11-4 39.3-3.56L39.3-3.56 42.43-2.98 42.43-1.32 39.79-0.24Q39.06 0.05 38.43 0.22 37.79 0.39 37.3 0.39L37.3 0.39Q35.64 0.39 35.1-1.37L35.1-1.37 34.47-3.42 35.3-3.32Q33.74-1.51 32.2-0.56 30.66 0.39 29.15 0.39ZM30.86-2.98L30.86-2.98Q31.83-2.98 32.71-3.42 33.59-3.86 34.37-4.74L34.37-4.74 34.37-9.77 29.59-8.59Q28.42-8.3 27.9-7.69 27.39-7.08 27.39-6.1L27.39-6.1Q27.39-4.88 28.42-3.93 29.44-2.98 30.86-2.98ZM46.87-1.32L46.87-1.32Q46.97-3.03 46.99-4.42 47.02-5.81 47.02-7.2 47.02-8.59 47.02-10.06L47.02-10.06 47.02-17.72Q47.02-19.58 46.99-21.48 46.97-23.39 46.94-25.05 46.92-26.71 46.89-27.93 46.87-29.15 46.82-29.64L46.82-29.64 43.21-30.08 43.11-31.79 50.73-33.94 51.85-33.2Q51.75-31.2 51.68-29.17 51.61-27.15 51.58-24.49 51.56-21.83 51.46-17.92L51.46-17.92 51.61-17.87Q52.73-19.43 54.54-20.48 56.34-21.53 58.44-21.53L58.44-21.53Q60.88-21.53 62.93-20.34 64.99-19.14 66.23-16.92 67.48-14.7 67.48-11.52L67.48-11.52Q67.48-8.11 65.86-5.42 64.25-2.73 61.42-1.17 58.59 0.39 55.07 0.39L55.07 0.39Q52.92 0.39 50.8-0.07 48.68-0.54 46.87-1.32ZM56.2-2.44L56.2-2.44Q58.83-2.44 60.62-4.49 62.4-6.54 62.45-10.45L62.45-10.45Q62.5-14.26 60.69-16.04 58.88-17.82 56.34-17.82L56.34-17.82Q54.98-17.82 53.73-17.24 52.49-16.65 51.56-15.48L51.56-15.48 51.56-3.91Q52.44-3.22 53.61-2.83 54.78-2.44 56.2-2.44ZM78.75 0.39L78.75 0.39Q76.7 0.39 75.14-0.46 73.58-1.32 72.75-2.59 71.92-3.86 71.92-5.13L71.92-5.13Q71.92-6.79 72.97-7.89 74.02-8.98 76.46-9.77L76.46-9.77 83.98-12.21 83.98-14.45Q83.98-15.58 83.27-16.55 82.56-17.53 81.39-18.12 80.22-18.7 78.75-18.7L78.75-18.7Q77.73-18.7 77.31-18.24 76.9-17.77 76.8-16.41L76.8-16.41 76.65-14.06Q74.7-13.62 73.36-14.18 72.01-14.75 72.01-16.06L72.01-16.06Q72.01-16.89 72.82-17.77 73.63-18.65 74.87-19.46 76.12-20.26 77.53-20.8 78.95-21.34 80.22-21.53L80.22-21.53Q84.03-21.53 86.35-19.6 88.66-17.68 88.71-14.5L88.71-14.5 88.57-6.79Q88.57-5.71 88.64-4.86 88.71-4 88.91-3.56L88.91-3.56 92.03-2.98 92.03-1.32 89.4-0.24Q88.66 0.05 88.03 0.22 87.39 0.39 86.91 0.39L86.91 0.39Q85.25 0.39 84.71-1.37L84.71-1.37 84.07-3.42 84.9-3.32Q83.34-1.51 81.8-0.56 80.27 0.39 78.75 0.39ZM80.46-2.98L80.46-2.98Q81.44-2.98 82.32-3.42 83.2-3.86 83.98-4.74L83.98-4.74 83.98-9.77 79.19-8.59Q78.02-8.3 77.51-7.69 76.99-7.08 76.99-6.1L76.99-6.1Q76.99-4.88 78.02-3.93 79.05-2.98 80.46-2.98ZM102.33 0.39L102.33 0.39Q100.48 0.39 98.6-0.05 96.72-0.49 95.4-1.17L95.4-1.17 95.16-6.59 97.79-6.59 98.77-3.08Q100.48-1.9 102.68-1.9L102.68-1.9Q104.29-1.9 105.24-2.66 106.19-3.42 106.19-4.64L106.19-4.64Q106.19-5.86 105.29-6.76 104.38-7.67 101.7-8.74L101.7-8.74Q98.18-10.16 96.77-11.62 95.35-13.09 95.35-15.33L95.35-15.33Q95.35-17.14 96.47-18.53 97.6-19.92 99.55-20.73 101.5-21.53 104.09-21.53L104.09-21.53Q105.51-21.53 106.97-21.29 108.44-21.04 109.46-20.61L109.46-20.61 110-15.33 107.46-15.33 106.29-18.65Q105.8-18.95 105.12-19.12 104.43-19.29 103.7-19.29L103.7-19.29Q102.04-19.29 101.04-18.53 100.04-17.77 100.04-16.6L100.04-16.6Q100.04-15.28 101.16-14.4 102.28-13.53 105.12-12.26L105.12-12.26Q108.34-10.84 109.66-9.4 110.98-7.96 110.98-5.86L110.98-5.86Q110.98-3.13 108.56-1.37 106.14 0.39 102.33 0.39ZM125.33 0.39L125.33 0.39Q122.11 0.39 119.64-1 117.18-2.39 115.81-4.86 114.44-7.32 114.44-10.5L114.44-10.5Q114.44-13.87 115.98-16.33 117.52-18.8 120.03-20.17 122.55-21.53 125.52-21.53L125.52-21.53Q128.6-21.53 130.92-20.17 133.24-18.8 134.56-16.38 135.88-13.96 135.88-10.79L135.88-10.79Q135.88-7.67 134.46-5.13 133.04-2.59 130.65-1.1 128.26 0.39 125.33 0.39ZM125.82-2.15L125.82-2.15Q127.33-2.15 128.43-3.08 129.53-4 130.14-5.71 130.75-7.42 130.75-9.62L130.75-9.62Q130.75-13.87 129.14-16.48 127.53-19.09 124.89-19.09L124.89-19.09Q122.55-19.09 121.11-16.99 119.67-14.89 119.67-11.43L119.67-11.43Q119.67-8.74 120.45-6.64 121.23-4.54 122.64-3.34 124.06-2.15 125.82-2.15ZM151.06-1.95L150.91 0 139.24 0 139.15-1.9 142.17-2.69Q142.17-3.22 142.2-3.83 142.22-4.44 142.22-5.32 142.22-6.2 142.22-7.45 142.22-8.69 142.22-10.5L142.22-10.5 142.17-18.41 142.17-23.63Q142.17-26.76 143.25-29.13 144.32-31.49 146.2-32.79 148.08-34.08 150.52-34.08L150.52-34.08Q152.62-34.08 154.06-33.18 155.5-32.28 155.5-30.86L155.5-30.86Q155.5-30.08 154.99-29.61 154.48-29.15 153.65-29.15L153.65-29.15Q152.38-29.15 151.16-30.27L151.16-30.27 148.76-32.57 150.23-32.28Q148.57-32.28 147.64-30.47 146.71-28.66 146.71-25.24L146.71-25.24 146.71-21.04 146.81-18.41 146.86-10.79Q146.86-8.54 146.93-6.3 147.01-4.05 147.06-2.69L147.06-2.69 151.06-1.95ZM152.08-18.36L138.66-18.36 138.66-20.21 142.17-21.09 145.64-21.04 152.08-21.04 152.08-18.36ZM169.27-4.64L170.25-3.37Q169.42-1.61 167.68-0.61 165.95 0.39 164.05 0.39L164.05 0.39Q160.92 0.39 158.92-1.46 156.92-3.32 156.92-7.03L156.92-7.03 157.06-18.41 153.64-18.41 153.64-19.63 160.58-25.63 161.75-25.63 161.65-19.63 161.55-7.71Q161.55-5.37 162.6-4.25 163.65-3.13 165.61-3.13L165.61-3.13Q166.68-3.13 167.61-3.54 168.54-3.96 169.27-4.64L169.27-4.64ZM168.83-18.41L159.5-18.41 159.5-21.09 168.83-21.09 168.83-18.41ZM179.03 0.39L179.03 0.39Q177.18 0.39 175.3-0.05 173.42-0.49 172.1-1.17L172.1-1.17 171.86-6.59 174.49-6.59 175.47-3.08Q177.18-1.9 179.37-1.9L179.37-1.9Q180.99-1.9 181.94-2.66 182.89-3.42 182.89-4.64L182.89-4.64Q182.89-5.86 181.99-6.76 181.08-7.67 178.4-8.74L178.4-8.74Q174.88-10.16 173.47-11.62 172.05-13.09 172.05-15.33L172.05-15.33Q172.05-17.14 173.17-18.53 174.3-19.92 176.25-20.73 178.2-21.53 180.79-21.53L180.79-21.53Q182.21-21.53 183.67-21.29 185.14-21.04 186.16-20.61L186.16-20.61 186.7-15.33 184.16-15.33 182.99-18.65Q182.5-18.95 181.82-19.12 181.13-19.29 180.4-19.29L180.4-19.29Q178.74-19.29 177.74-18.53 176.74-17.77 176.74-16.6L176.74-16.6Q176.74-15.28 177.86-14.4 178.98-13.53 181.82-12.26L181.82-12.26Q185.04-10.84 186.36-9.4 187.68-7.96 187.68-5.86L187.68-5.86Q187.68-3.13 185.26-1.37 182.84 0.39 179.03 0.39Z" opacity="1" transform="matrix(1,0,0,1,0,0)" fill="#d82c2c" class="wordmark-text-0" data-fill-palette-color="primary" id="text-0"></path></svg></g></svg></g></svg></g></svg></g></svg></g><defs></defs></svg><rect width="395.52" height="73.560885142255" fill="none" stroke="none" visibility="hidden"></rect></g></svg></g></svg>